<svg width="320" height="220" viewBox="0 0 320 220" fill="none" xmlns="http://www.w3.org/2000/svg" role="img" aria-labelledby="title desc">
  <title id="title">Pixelated beehive logo for Hive</title>
  <desc id="desc">A cute pixel-art beehive with honeycomb cells on a dark background.</desc>
  <rect width="320" height="220" fill="#211707"/>
  <rect x="42" y="34" width="16" height="16" fill="#F5C542"/>
  <rect x="58" y="34" width="16" height="16" fill="#9B6A18"/>
  <rect x="246" y="46" width="16" height="16" fill="#F5C542"/>
  <rect x="262" y="46" width="16" height="16" fill="#3C8690"/>
  <rect x="226" y="162" width="16" height="16" fill="#9B6A18"/>
  <rect x="242" y="162" width="16" height="16" fill="#F5C542"/>
  <rect x="90" y="66" width="140" height="16" fill="#0F0A04"/>
  <rect x="74" y="82" width="172" height="16" fill="#0F0A04"/>
  <rect x="58" y="98" width="204" height="16" fill="#0F0A04"/>
  <rect x="58" y="114" width="204" height="16" fill="#0F0A04"/>
  <rect x="74" y="130" width="172" height="16" fill="#0F0A04"/>
  <rect x="90" y="146" width="140" height="16" fill="#0F0A04"/>
  <rect x="106" y="50" width="108" height="16" fill="#0F0A04"/>
  <rect x="122" y="34" width="76" height="16" fill="#0F0A04"/>
  <rect x="106" y="66" width="108" height="16" fill="#F5C542"/>
  <rect x="90" y="82" width="140" height="16" fill="#F5C542"/>
  <rect x="74" y="98" width="172" height="16" fill="#F5C542"/>
  <rect x="74" y="114" width="172" height="16" fill="#D99522"/>
  <rect x="90" y="130" width="140" height="16" fill="#C27A18"/>
  <rect x="106" y="146" width="108" height="16" fill="#9B5E12"/>
  <rect x="122" y="50" width="76" height="16" fill="#F6D66B"/>
  <rect x="138" y="34" width="44" height="16" fill="#F8E18A"/>
  <rect x="118" y="82" width="32" height="16" fill="#8A5411"/>
  <rect x="166" y="82" width="32" height="16" fill="#8A5411"/>
  <rect x="94" y="106" width="32" height="16" fill="#8A5411"/>
  <rect x="142" y="106" width="32" height="16" fill="#8A5411"/>
  <rect x="190" y="106" width="32" height="16" fill="#8A5411"/>
  <rect x="118" y="130" width="32" height="16" fill="#6D3D0B"/>
  <rect x="166" y="130" width="32" height="16" fill="#6D3D0B"/>
  <rect x="142" y="154" width="36" height="24" fill="#0F0A04"/>
  <rect x="154" y="154" width="12" height="24" fill="#2B1B08"/>
  <rect x="74" y="178" width="172" height="16" fill="#0F0A04"/>
  <rect x="90" y="178" width="140" height="16" fill="#5C350A"/>
  <rect x="106" y="194" width="108" height="10" fill="#0F0A04"/>
</svg>
